<svg width="22" height="21" viewBox="0 0 22 21" fill="none" xmlns="http://www.w3.org/2000/svg">
<path d="M9.75013 1.17878C10.0495 0.257463 11.3529 0.257463 11.6522 1.17878L13.4793 6.80203C13.6132 7.21405 13.9971 7.49302 14.4303 7.49302H20.3429C21.3116 7.49302 21.7144 8.73257 20.9307 9.30207L16.1473 12.7775C15.7968 13.0321 15.6502 13.4835 15.784 13.8955L17.6111 19.5188C17.9104 20.4401 16.8559 21.2063 16.0722 20.6368L11.289 17.1615C10.9385 16.9068 10.4639 16.9068 10.1134 17.1615L5.33013 20.6368C4.54643 21.2063 3.49193 20.4401 3.79133 19.5188L5.61833 13.8955C5.75223 13.4835 5.60553 13.0321 5.25513 12.7775L0.471733 9.30207C-0.311967 8.73257 0.0908317 7.49302 1.05953 7.49302H6.97203C7.40523 7.49302 7.78923 7.21405 7.92313 6.80202L9.75013 1.17878Z" fill="#FFA858"/>
</svg>
